{
	"asset":{
		"generator":"Khronos glTF Blender I/O v3.6.27",
		"version":"2.0"
	},
	"extensionsUsed":[
		"KHR_materials_specular",
		"KHR_materials_ior"
	],
	"scene":0,
	"scenes":[
		{
			"name":"Scene",
			"nodes":[
				0,
				1,
				2,
				3
			]
		}
	],
	"nodes":[
		{
			"mesh":0,
			"name":"Plane",
			"scale":[
				3.267242670059204,
				1,
				3.267242670059204
			],
			"translation":[
				0.5357637405395508,
				0.13313047587871552,
				1.9347891807556152
			]
		},
		{
			"mesh":1,
			"name":"TQMESA_ARD-node",
			"rotation":[
				-1,
				0,
				0,
				7.549790126404332e-08
			],
			"translation":[
				-0.17916366457939148,
				0.7032356858253479,
				0.13226507604122162
			]
		},
		{
			"mesh":2,
			"name":"TQPATA_ARD-node",
			"translation":[
				0.3967975378036499,
				0.807991087436676,
				0.17582792043685913
			]
		},
		{
			"mesh":3,
			"name":"TQPATA222_ARD-node",
			"translation":[
				-0.7678983211517334,
				0.8062067031860352,
				0.1773958057165146
			]
		}
	],
	"materials":[
		{
			"doubleSided":true,
			"extensions":{
				"KHR_materials_specular":{
					"specularColorFactor":[
						0,
						0,
						0
					]
				},
				"KHR_materials_ior":{
					"ior":0
				}
			},
			"name":"TQMESA_ARD_front",
			"pbrMetallicRoughness":{
				"baseColorTexture":{
					"index":0
				},
				"metallicFactor":0,
				"roughnessFactor":0.5
			}
		},
		{
			"doubleSided":true,
			"extensions":{
				"KHR_materials_specular":{
					"specularColorFactor":[
						0,
						0,
						0
					]
				},
				"KHR_materials_ior":{
					"ior":0
				}
			},
			"name":"TQMESA_ARD_back",
			"pbrMetallicRoughness":{
				"baseColorFactor":[
					0.3847902715206146,
					0.21082937717437744,
					0.09809868037700653,
					1
				],
				"metallicFactor":0,
				"roughnessFactor":0.5
			}
		},
		{
			"doubleSided":true,
			"extensions":{
				"KHR_materials_specular":{
					"specularColorFactor":[
						0,
						0,
						0
					]
				},
				"KHR_materials_ior":{
					"ior":0
				}
			},
			"name":"TQMESA_ARD_edge",
			"pbrMetallicRoughness":{
				"baseColorTexture":{
					"index":1
				},
				"metallicFactor":0,
				"roughnessFactor":0.5
			}
		},
		{
			"doubleSided":true,
			"extensions":{
				"KHR_materials_specular":{
					"specularColorFactor":[
						0,
						0,
						0
					]
				},
				"KHR_materials_ior":{
					"ior":0
				}
			},
			"name":"TQPATA_ARD_front",
			"pbrMetallicRoughness":{
				"baseColorTexture":{
					"index":2
				},
				"metallicFactor":0,
				"roughnessFactor":0.5
			}
		},
		{
			"doubleSided":true,
			"extensions":{
				"KHR_materials_specular":{
					"specularColorFactor":[
						0,
						0,
						0
					]
				},
				"KHR_materials_ior":{
					"ior":0
				}
			},
			"name":"TQPATA_ARD_back",
			"pbrMetallicRoughness":{
				"baseColorFactor":[
					0.996078372001648,
					0.9019607901573181,
					0.6627451181411743,
					1
				],
				"metallicFactor":0,
				"roughnessFactor":0.5
			}
		},
		{
			"doubleSided":true,
			"extensions":{
				"KHR_materials_specular":{
					"specularColorFactor":[
						0,
						0,
						0
					]
				},
				"KHR_materials_ior":{
					"ior":0
				}
			},
			"name":"TQPATA_ARD_edge",
			"pbrMetallicRoughness":{
				"baseColorTexture":{
					"index":3
				},
				"metallicFactor":0,
				"roughnessFactor":0.5
			}
		},
		{
			"doubleSided":true,
			"extensions":{
				"KHR_materials_specular":{
					"specularColorFactor":[
						0,
						0,
						0
					]
				},
				"KHR_materials_ior":{
					"ior":0
				}
			},
			"name":"TQPATA222_ARD_front",
			"pbrMetallicRoughness":{
				"baseColorTexture":{
					"index":4
				},
				"metallicFactor":0,
				"roughnessFactor":0.5
			}
		},
		{
			"doubleSided":true,
			"extensions":{
				"KHR_materials_specular":{
					"specularColorFactor":[
						0,
						0,
						0
					]
				},
				"KHR_materials_ior":{
					"ior":0
				}
			},
			"name":"TQPATA222_ARD_back",
			"pbrMetallicRoughness":{
				"baseColorFactor":[
					0.996078372001648,
					0.9019607901573181,
					0.6627451181411743,
					1
				],
				"metallicFactor":0,
				"roughnessFactor":0.5
			}
		},
		{
			"doubleSided":true,
			"extensions":{
				"KHR_materials_specular":{
					"specularColorFactor":[
						0,
						0,
						0
					]
				},
				"KHR_materials_ior":{
					"ior":0
				}
			},
			"name":"TQPATA222_ARD_edge",
			"pbrMetallicRoughness":{
				"baseColorTexture":{
					"index":5
				},
				"metallicFactor":0,
				"roughnessFactor":0.5
			}
		}
	],
	"meshes":[
		{
			"name":"Plane",
			"primitives":[
				{
					"attributes":{
						"POSITION":0,
						"NORMAL":1,
						"TEXCOORD_0":2
					},
					"indices":3
				}
			]
		},
		{
			"name":"TQMESA_ARD-geom",
			"primitives":[
				{
					"attributes":{
						"POSITION":4,
						"NORMAL":5,
						"TEXCOORD_0":6
					},
					"indices":7,
					"material":0
				},
				{
					"attributes":{
						"POSITION":8,
						"NORMAL":9,
						"TEXCOORD_0":10
					},
					"indices":11,
					"material":1
				},
				{
					"attributes":{
						"POSITION":12,
						"NORMAL":13,
						"TEXCOORD_0":14
					},
					"indices":15,
					"material":2
				}
			]
		},
		{
			"name":"TQPATA_ARD-geom",
			"primitives":[
				{
					"attributes":{
						"POSITION":16,
						"NORMAL":17,
						"TEXCOORD_0":18
					},
					"indices":19,
					"material":3
				},
				{
					"attributes":{
						"POSITION":20,
						"NORMAL":21,
						"TEXCOORD_0":22
					},
					"indices":23,
					"material":4
				},
				{
					"attributes":{
						"POSITION":24,
						"NORMAL":25,
						"TEXCOORD_0":26
					},
					"indices":27,
					"material":5
				}
			]
		},
		{
			"name":"TQPATA222_ARD-geom",
			"primitives":[
				{
					"attributes":{
						"POSITION":28,
						"NORMAL":29,
						"TEXCOORD_0":30
					},
					"indices":31,
					"material":6
				},
				{
					"attributes":{
						"POSITION":32,
						"NORMAL":33,
						"TEXCOORD_0":34
					},
					"indices":35,
					"material":7
				},
				{
					"attributes":{
						"POSITION":36,
						"NORMAL":37,
						"TEXCOORD_0":38
					},
					"indices":39,
					"material":8
				}
			]
		}
	],
	"textures":[
		{
			"sampler":0,
			"source":0
		},
		{
			"sampler":0,
			"source":1
		},
		{
			"sampler":0,
			"source":2
		},
		{
			"sampler":0,
			"source":3
		},
		{
			"sampler":0,
			"source":4
		},
		{
			"sampler":0,
			"source":5
		}
	],
	"images":[
		{
			"bufferView":8,
			"mimeType":"image/jpeg",
			"name":"1"
		},
		{
			"bufferView":17,
			"mimeType":"image/png",
			"name":"TQMESA_ARD-I1"
		},
		{
			"bufferView":22,
			"mimeType":"image/jpeg",
			"name":"2"
		},
		{
			"bufferView":31,
			"mimeType":"image/png",
			"name":"TQPATA_ARD-I1"
		},
		{
			"bufferView":36,
			"mimeType":"image/jpeg",
			"name":"3"
		},
		{
			"bufferView":45,
			"mimeType":"image/png",
			"name":"TQPATA222_ARD-I1"
		}
	],
	"accessors":[
		{
			"bufferView":0,
			"componentType":5126,
			"count":4,
			"max":[
				1,
				0,
				1
			],
			"min":[
				-1,
				0,
				-1
			],
			"type":"VEC3"
		},
		{
			"bufferView":1,
			"componentType":5126,
			"count":4,
			"type":"VEC3"
		},
		{
			"bufferView":2,
			"componentType":5126,
			"count":4,
			"type":"VEC2"
		},
		{
			"bufferView":3,
			"componentType":5123,
			"count":6,
			"type":"SCALAR"
		},
		{
			"bufferView":4,
			"componentType":5126,
			"count":288,
			"max":[
				0.6439140439033508,
				0.5585818290710449,
				0.13722443580627441
			],
			"min":[
				-0.6570793390274048,
				-0.4493555426597595,
				-0.2352118194103241
			],
			"type":"VEC3"
		},
		{
			"bufferView":5,
			"componentType":5126,
			"count":288,
			"type":"VEC3"
		},
		{
			"bufferView":6,
			"componentType":5126,
			"count":288,
			"type":"VEC2"
		},
		{
			"bufferView":7,
			"componentType":5123,
			"count":762,
			"type":"SCALAR"
		},
		{
			"bufferView":9,
			"componentType":5126,
			"count":269,
			"max":[
				0.6439140439033508,
				0.5546129941940308,
				0.13209328055381775
			],
			"min":[
				-0.6570793390274048,
				-0.4442243278026581,
				-0.23008063435554504
			],
			"type":"VEC3"
		},
		{
			"bufferView":10,
			"componentType":5126,
			"count":269,
			"type":"VEC3"
		},
		{
			"bufferView":11,
			"componentType":5126,
			"count":269,
			"type":"VEC2"
		},
		{
			"bufferView":12,
			"componentType":5123,
			"count":762,
			"type":"SCALAR"
		},
		{
			"bufferView":13,
			"componentType":5126,
			"count":667,
			"max":[
				0.6439140439033508,
				0.5585818290710449,
				0.13722443580627441
			],
			"min":[
				-0.6570793390274048,
				-0.4493555426597595,
				-0.2352118194103241
			],
			"type":"VEC3"
		},
		{
			"bufferView":14,
			"componentType":5126,
			"count":667,
			"type":"VEC3"
		},
		{
			"bufferView":15,
			"componentType":5126,
			"count":667,
			"type":"VEC2"
		},
		{
			"bufferView":16,
			"componentType":5123,
			"count":1488,
			"type":"SCALAR"
		},
		{
			"bufferView":18,
			"componentType":5126,
			"count":264,
			"max":[
				0.0779578685760498,
				0.3364403247833252,
				0.19730761647224426
			],
			"min":[
				-0.13501065969467163,
				-0.6645597219467163,
				-0.1751306802034378
			],
			"type":"VEC3"
		},
		{
			"bufferView":19,
			"componentType":5126,
			"count":264,
			"type":"VEC3"
		},
		{
			"bufferView":20,
			"componentType":5126,
			"count":264,
			"type":"VEC2"
		},
		{
			"bufferView":21,
			"componentType":5123,
			"count":651,
			"type":"SCALAR"
		},
		{
			"bufferView":23,
			"componentType":5126,
			"count":237,
			"max":[
				0.07282668352127075,
				0.3364403247833252,
				0.19333860278129578
			],
			"min":[
				-0.13501065969467163,
				-0.6645597219467163,
				-0.17116184532642365
			],
			"type":"VEC3"
		},
		{
			"bufferView":24,
			"componentType":5126,
			"count":237,
			"type":"VEC3"
		},
		{
			"bufferView":25,
			"componentType":5126,
			"count":237,
			"type":"VEC2"
		},
		{
			"bufferView":26,
			"componentType":5123,
			"count":651,
			"type":"SCALAR"
		},
		{
			"bufferView":27,
			"componentType":5126,
			"count":601,
			"max":[
				0.0779578685760498,
				0.3364403247833252,
				0.19730761647224426
			],
			"min":[
				-0.13501065969467163,
				-0.6645597219467163,
				-0.1751306802034378
			],
			"type":"VEC3"
		},
		{
			"bufferView":28,
			"componentType":5126,
			"count":601,
			"type":"VEC3"
		},
		{
			"bufferView":29,
			"componentType":5126,
			"count":601,
			"type":"VEC2"
		},
		{
			"bufferView":30,
			"componentType":5123,
			"count":1314,
			"type":"SCALAR"
		},
		{
			"bufferView":32,
			"componentType":5126,
			"count":265,
			"max":[
				0.13480806350708008,
				0.3377922773361206,
				0.19871026277542114
			],
			"min":[
				-0.07816040515899658,
				-0.6632075309753418,
				-0.17372818291187286
			],
			"type":"VEC3"
		},
		{
			"bufferView":33,
			"componentType":5126,
			"count":265,
			"type":"VEC3"
		},
		{
			"bufferView":34,
			"componentType":5126,
			"count":265,
			"type":"VEC2"
		},
		{
			"bufferView":35,
			"componentType":5123,
			"count":657,
			"type":"SCALAR"
		},
		{
			"bufferView":37,
			"componentType":5126,
			"count":244,
			"max":[
				0.13480806350708008,
				0.3377922773361206,
				0.19474142789840698
			],
			"min":[
				-0.0730292797088623,
				-0.6632075309753418,
				-0.16975922882556915
			],
			"type":"VEC3"
		},
		{
			"bufferView":38,
			"componentType":5126,
			"count":244,
			"type":"VEC3"
		},
		{
			"bufferView":39,
			"componentType":5126,
			"count":244,
			"type":"VEC2"
		},
		{
			"bufferView":40,
			"componentType":5123,
			"count":657,
			"type":"SCALAR"
		},
		{
			"bufferView":41,
			"componentType":5126,
			"count":607,
			"max":[
				0.13480806350708008,
				0.3377922773361206,
				0.19871026277542114
			],
			"min":[
				-0.07816040515899658,
				-0.6632075309753418,
				-0.17372818291187286
			],
			"type":"VEC3"
		},
		{
			"bufferView":42,
			"componentType":5126,
			"count":607,
			"type":"VEC3"
		},
		{
			"bufferView":43,
			"componentType":5126,
			"count":607,
			"type":"VEC2"
		},
		{
			"bufferView":44,
			"componentType":5123,
			"count":1326,
			"type":"SCALAR"
		}
	],
	"bufferViews":[
		{
			"buffer":0,
			"byteLength":48,
			"byteOffset":0,
			"target":34962
		},
		{
			"buffer":0,
			"byteLength":48,
			"byteOffset":48,
			"target":34962
		},
		{
			"buffer":0,
			"byteLength":32,
			"byteOffset":96,
			"target":34962
		},
		{
			"buffer":0,
			"byteLength":12,
			"byteOffset":128,
			"target":34963
		},
		{
			"buffer":0,
			"byteLength":3456,
			"byteOffset":140,
			"target":34962
		},
		{
			"buffer":0,
			"byteLength":3456,
			"byteOffset":3596,
			"target":34962
		},
		{
			"buffer":0,
			"byteLength":2304,
			"byteOffset":7052,
			"target":34962
		},
		{
			"buffer":0,
			"byteLength":1524,
			"byteOffset":9356,
			"target":34963
		},
		{
			"buffer":0,
			"byteLength":483003,
			"byteOffset":10880
		},
		{
			"buffer":0,
			"byteLength":3228,
			"byteOffset":493884,
			"target":34962
		},
		{
			"buffer":0,
			"byteLength":3228,
			"byteOffset":497112,
			"target":34962
		},
		{
			"buffer":0,
			"byteLength":2152,
			"byteOffset":500340,
			"target":34962
		},
		{
			"buffer":0,
			"byteLength":1524,
			"byteOffset":502492,
			"target":34963
		},
		{
			"buffer":0,
			"byteLength":8004,
			"byteOffset":504016,
			"target":34962
		},
		{
			"buffer":0,
			"byteLength":8004,
			"byteOffset":512020,
			"target":34962
		},
		{
			"buffer":0,
			"byteLength":5336,
			"byteOffset":520024,
			"target":34962
		},
		{
			"buffer":0,
			"byteLength":2976,
			"byteOffset":525360,
			"target":34963
		},
		{
			"buffer":0,
			"byteLength":2655,
			"byteOffset":528336
		},
		{
			"buffer":0,
			"byteLength":3168,
			"byteOffset":530992,
			"target":34962
		},
		{
			"buffer":0,
			"byteLength":3168,
			"byteOffset":534160,
			"target":34962
		},
		{
			"buffer":0,
			"byteLength":2112,
			"byteOffset":537328,
			"target":34962
		},
		{
			"buffer":0,
			"byteLength":1302,
			"byteOffset":539440,
			"target":34963
		},
		{
			"buffer":0,
			"byteLength":241185,
			"byteOffset":540744
		},
		{
			"buffer":0,
			"byteLength":2844,
			"byteOffset":781932,
			"target":34962
		},
		{
			"buffer":0,
			"byteLength":2844,
			"byteOffset":784776,
			"target":34962
		},
		{
			"buffer":0,
			"byteLength":1896,
			"byteOffset":787620,
			"target":34962
		},
		{
			"buffer":0,
			"byteLength":1302,
			"byteOffset":789516,
			"target":34963
		},
		{
			"buffer":0,
			"byteLength":7212,
			"byteOffset":790820,
			"target":34962
		},
		{
			"buffer":0,
			"byteLength":7212,
			"byteOffset":798032,
			"target":34962
		},
		{
			"buffer":0,
			"byteLength":4808,
			"byteOffset":805244,
			"target":34962
		},
		{
			"buffer":0,
			"byteLength":2628,
			"byteOffset":810052,
			"target":34963
		},
		{
			"buffer":0,
			"byteLength":2655,
			"byteOffset":812680
		},
		{
			"buffer":0,
			"byteLength":3180,
			"byteOffset":815336,
			"target":34962
		},
		{
			"buffer":0,
			"byteLength":3180,
			"byteOffset":818516,
			"target":34962
		},
		{
			"buffer":0,
			"byteLength":2120,
			"byteOffset":821696,
			"target":34962
		},
		{
			"buffer":0,
			"byteLength":1314,
			"byteOffset":823816,
			"target":34963
		},
		{
			"buffer":0,
			"byteLength":234819,
			"byteOffset":825132
		},
		{
			"buffer":0,
			"byteLength":2928,
			"byteOffset":1059952,
			"target":34962
		},
		{
			"buffer":0,
			"byteLength":2928,
			"byteOffset":1062880,
			"target":34962
		},
		{
			"buffer":0,
			"byteLength":1952,
			"byteOffset":1065808,
			"target":34962
		},
		{
			"buffer":0,
			"byteLength":1314,
			"byteOffset":1067760,
			"target":34963
		},
		{
			"buffer":0,
			"byteLength":7284,
			"byteOffset":1069076,
			"target":34962
		},
		{
			"buffer":0,
			"byteLength":7284,
			"byteOffset":1076360,
			"target":34962
		},
		{
			"buffer":0,
			"byteLength":4856,
			"byteOffset":1083644,
			"target":34962
		},
		{
			"buffer":0,
			"byteLength":2652,
			"byteOffset":1088500,
			"target":34963
		},
		{
			"buffer":0,
			"byteLength":2655,
			"byteOffset":1091152
		}
	],
	"samplers":[
		{
			"magFilter":9729,
			"minFilter":9987
		}
	],
	"buffers":[
		{
			"byteLength":1093808,
			"uri":"data:application/octet-stream;base64,"
		}
	]
}
